<svg width="46" height="46" viewBox="0 0 46 46" fill="none" xmlns="http://www.w3.org/2000/svg">
<path d="M11.7334 15.0362L21.3168 21.4154C21.6388 21.6292 22.0553 21.7305 22.4744 21.7305C22.8936 21.7305 23.3101 21.6292 23.6321 21.4154L33.2154 15.0362C33.8403 14.6197 34.4306 13 33.2844 13H11.6657C10.5196 13 11.1099 14.6197 11.7334 15.0362V15.0362ZM33.5055 18.5242L23.6321 24.9003C23.1977 25.1822 22.8936 25.2154 22.4744 25.2154C22.0553 25.2154 21.7512 25.1822 21.3168 24.9003C20.8823 24.6185 12.2024 18.9803 11.4932 18.5227C10.9949 18.1997 11 18.5781 11 18.8694V30.4167C11 31.0817 11.7232 32 12.2778 32H32.7222C33.2768 32 34 31.0817 34 30.4167V18.871C34 18.5797 34.0051 18.2012 33.5055 18.5242V18.5242Z" fill="#006D77"/>
<circle cx="22.565" cy="22.565" r="21.815" stroke="#006D77" stroke-width="1.5"/>
</svg>
