<svg width="46" height="46" viewBox="0 0 46 46" fill="none" xmlns="http://www.w3.org/2000/svg">
<circle cx="22.565" cy="22.565" r="21.815" stroke="#006D77" stroke-width="1.5"/>
<path d="M34.4349 15.2148C34.1249 14.1298 33.3499 13.3548 32.2649 13.0448C29.0099 12.7348 25.7549 12.4248 22.4999 12.5798C19.2449 12.5798 15.9899 12.7348 12.7349 13.0448C11.8049 13.3548 10.8749 14.2848 10.5649 15.2148C9.9468 20.0518 9.9468 24.9478 10.5649 29.7848C10.8749 30.8698 11.6499 31.6448 12.7349 31.9548C15.9899 32.2648 19.2449 32.5748 22.4999 32.4198C25.7549 32.4198 29.0099 32.2648 32.2649 31.9548C33.3499 31.6448 34.1249 30.8698 34.4349 29.7848C35.053 24.9478 35.053 20.0518 34.4349 15.2148V15.2148ZM19.3999 27.1498V17.8498L27.4599 22.4998L19.3999 27.1498Z" fill="#006D77"/>
</svg>
