<svg width="46" height="46" viewBox="0 0 46 46" fill="none" xmlns="http://www.w3.org/2000/svg">
<circle cx="22.565" cy="22.565" r="21.815" stroke="#006D77" stroke-width="1.5"/>
<path d="M36 14.6045C34.9959 15.0462 33.9261 15.3389 32.8106 15.4811C33.9581 14.794 34.8339 13.7143 35.2457 12.4129C34.1758 13.0526 32.9946 13.5045 31.7357 13.7566C30.7198 12.6718 29.2719 12 27.6924 12C24.6279 12 22.1608 14.4945 22.1608 17.5525C22.1608 17.9925 22.1979 18.4155 22.2891 18.8183C17.6873 18.5932 13.6153 16.3814 10.8799 13.012C10.4023 13.8429 10.1222 14.794 10.1222 15.8178C10.1222 17.7403 11.1094 19.4445 12.5809 20.4311C11.6916 20.4142 10.8191 20.1552 10.08 19.7474C10.08 19.7643 10.08 19.7863 10.08 19.8083C10.08 22.5058 11.9987 24.7465 14.5148 25.2626C14.0642 25.3862 13.5731 25.4454 13.0635 25.4454C12.7091 25.4454 12.3514 25.4251 12.0156 25.3506C12.7328 27.5489 14.7679 29.1651 17.1878 29.2175C15.3045 30.6949 12.9133 31.5851 10.3247 31.5851C9.87075 31.5851 9.43538 31.5648 9 31.5089C11.4519 33.0946 14.3578 34 17.4915 34C27.6773 34 33.246 25.5385 33.246 18.204C33.246 17.9586 33.2376 17.7217 33.2258 17.4865C34.3243 16.7046 35.2474 15.7282 36 14.6045Z" fill="#006D77"/>
</svg>
