<svg width="46" height="46" viewBox="0 0 46 46" fill="none" xmlns="http://www.w3.org/2000/svg">
<circle cx="22.565" cy="22.565" r="21.815" stroke="#006D77" stroke-width="1.5"/>
<path d="M22.5 19.71C21.9482 19.71 21.4088 19.8736 20.95 20.1802C20.4911 20.4868 20.1335 20.9225 19.9224 21.4323C19.7112 21.9421 19.656 22.5031 19.7636 23.0443C19.8713 23.5855 20.137 24.0826 20.5272 24.4728C20.9174 24.863 21.4145 25.1287 21.9557 25.2364C22.4969 25.344 23.0579 25.2888 23.5677 25.0776C24.0775 24.8665 24.5132 24.5089 24.8198 24.05C25.1264 23.5912 25.29 23.0518 25.29 22.5C25.29 22.1336 25.2178 21.7708 25.0776 21.4323C24.9374 21.0938 24.7319 20.7862 24.4728 20.5272C24.2138 20.2681 23.9062 20.0626 23.5677 19.9224C23.2292 19.7822 22.8664 19.71 22.5 19.71V19.71ZM33.6713 16.9538C33.6653 16.085 33.5054 15.2241 33.1988 14.4112C32.9729 13.8164 32.6236 13.2762 32.1737 12.8263C31.7238 12.3764 31.1836 12.0271 30.5888 11.8013C29.7759 11.4946 28.915 11.3347 28.0463 11.3287C26.595 11.25 26.1675 11.25 22.5 11.25C18.8325 11.25 18.405 11.25 16.9538 11.3287C16.085 11.3347 15.2241 11.4946 14.4112 11.8013C13.8164 12.0271 13.2762 12.3764 12.8263 12.8263C12.3764 13.2762 12.0271 13.8164 11.8013 14.4112C11.4946 15.2241 11.3347 16.085 11.3287 16.9538C11.25 18.405 11.25 18.8325 11.25 22.5C11.25 26.1675 11.25 26.595 11.3287 28.0463C11.3409 28.9181 11.5006 29.7816 11.8013 30.6C12.0261 31.1921 12.3751 31.7292 12.825 32.175C13.273 32.6276 13.8143 32.977 14.4112 33.1988C15.2241 33.5054 16.085 33.6653 16.9538 33.6713C18.405 33.75 18.8325 33.75 22.5 33.75C26.1675 33.75 26.595 33.75 28.0463 33.6713C28.915 33.6653 29.7759 33.5054 30.5888 33.1988C31.1857 32.977 31.727 32.6276 32.175 32.175C32.6249 31.7292 32.9739 31.1921 33.1988 30.6C33.5051 29.7831 33.665 28.9186 33.6713 28.0463C33.75 26.595 33.75 26.1675 33.75 22.5C33.75 18.8325 33.75 18.405 33.6713 16.9538V16.9538ZM30.8137 25.9537C30.7776 26.648 30.6295 27.3318 30.375 27.9788C30.1566 28.5184 29.8319 29.0086 29.4203 29.4203C29.0086 29.8319 28.5184 30.1566 27.9788 30.375C27.3257 30.6153 26.6381 30.7483 25.9425 30.7688C25.0538 30.7688 24.8175 30.7688 22.5 30.7688C20.1825 30.7688 19.9462 30.7688 19.0575 30.7688C18.3619 30.7483 17.6743 30.6153 17.0213 30.375C16.4634 30.1677 15.9596 29.8369 15.5475 29.4075C15.1399 29.0039 14.8251 28.5164 14.625 27.9788C14.3838 27.3264 14.2544 26.6379 14.2425 25.9425C14.2425 25.0538 14.2425 24.8175 14.2425 22.5C14.2425 20.1825 14.2425 19.9462 14.2425 19.0575C14.2544 18.3621 14.3838 17.6736 14.625 17.0213C14.8323 16.4634 15.1631 15.9596 15.5925 15.5475C15.9979 15.1421 16.4849 14.8276 17.0213 14.625C17.6743 14.3847 18.3619 14.2517 19.0575 14.2313V14.2313C19.9462 14.2313 20.1825 14.2313 22.5 14.2313C24.8175 14.2313 25.0538 14.2313 25.9425 14.2313C26.6381 14.2517 27.3257 14.3847 27.9788 14.625C28.5366 14.8323 29.0404 15.1631 29.4525 15.5925C29.8601 15.9961 30.1749 16.4836 30.375 17.0213C30.6153 17.6743 30.7483 18.3619 30.7688 19.0575C30.7688 19.9462 30.7688 20.1825 30.7688 22.5C30.7688 24.8175 30.8475 25.0538 30.8137 25.9425V25.9537ZM29.0138 17.5838C28.8798 17.2204 28.6686 16.8903 28.3948 16.6165C28.1209 16.3426 27.7909 16.1314 27.4275 15.9975C26.9285 15.8245 26.403 15.7408 25.875 15.75C24.9975 15.75 24.75 15.75 22.5 15.75C20.25 15.75 20.0025 15.75 19.125 15.75C18.5943 15.7552 18.0687 15.8542 17.5725 16.0425C17.2147 16.1704 16.8882 16.3729 16.6147 16.6367C16.3412 16.9005 16.1269 17.2195 15.9863 17.5725C15.8229 18.0735 15.7431 18.598 15.75 19.125C15.75 20.0025 15.75 20.25 15.75 22.5C15.75 24.75 15.75 24.9975 15.75 25.875C15.7612 26.4051 15.86 26.9297 16.0425 27.4275C16.1764 27.7909 16.3876 28.1209 16.6615 28.3948C16.9353 28.6686 17.2654 28.8798 17.6288 29.0138C18.1087 29.1903 18.6139 29.289 19.125 29.3062V29.3062C20.0025 29.3062 20.25 29.3062 22.5 29.3062C24.75 29.3062 24.9975 29.3062 25.875 29.3062C26.4057 29.3011 26.9313 29.202 27.4275 29.0138C27.7909 28.8798 28.1209 28.6686 28.3948 28.3948C28.6686 28.1209 28.8798 27.7909 29.0138 27.4275C29.202 26.9313 29.3011 26.4057 29.3062 25.875C29.3062 24.9975 29.3062 24.75 29.3062 22.5C29.3062 20.25 29.3062 20.0025 29.3062 19.125C29.3066 18.5938 29.2074 18.0672 29.0138 17.5725V17.5838ZM22.5 26.7975C21.9362 26.7975 21.3779 26.6863 20.8571 26.4702C20.3364 26.254 19.8633 25.9373 19.4652 25.5381C19.067 25.1389 18.7515 24.6651 18.5368 24.1437C18.322 23.6224 18.2123 23.0638 18.2137 22.5V22.5C18.2138 21.6496 18.4661 20.8182 18.9388 20.1113C19.4115 19.4043 20.0834 18.8535 20.8693 18.5286C21.6552 18.2036 22.5199 18.1192 23.3538 18.2859C24.1877 18.4527 24.9535 18.8631 25.554 19.4652C26.1546 20.0674 26.563 20.8341 26.7275 21.6685C26.8921 22.5029 26.8054 23.3673 26.4784 24.1524C26.1514 24.9375 25.5988 25.6079 24.8906 26.0787C24.1824 26.5496 23.3504 26.7997 22.5 26.7975V26.7975ZM27 19.0463C26.7513 19.0199 26.5212 18.9025 26.3539 18.7166C26.1866 18.5307 26.0941 18.2895 26.0941 18.0394C26.0941 17.7893 26.1866 17.5481 26.3539 17.3622C26.5212 17.1763 26.7513 17.0588 27 17.0325V17.0325C27.2487 17.0588 27.4788 17.1763 27.6461 17.3622C27.8134 17.5481 27.9059 17.7893 27.9059 18.0394C27.9059 18.2895 27.8134 18.5307 27.6461 18.7166C27.4788 18.9025 27.2487 19.0199 27 19.0463Z" fill="#006D77"/>
</svg>
