<svg width="54" height="54" viewBox="0 0 54 54" fill="none" xmlns="http://www.w3.org/2000/svg">
<g filter="url(#filter0_d_346_60)">
<circle cx="26.565" cy="22.565" r="21.815" stroke="#006D77" stroke-width="1.5"/>
<path d="M38.35 16.15C37.7375 17.0625 36.9625 17.875 36.0625 18.525C36.075 18.7125 36.075 18.9125 36.075 19.1125C36.075 25.175 31.4625 32.1625 23.0375 32.1625C20.45 32.1625 18.0375 31.4 16 30.1C16.3625 30.1375 16.725 30.1625 17.1 30.1625C19.25 30.1625 21.225 29.425 22.7875 28.2C21.8317 28.1802 20.9059 27.8624 20.1395 27.291C19.373 26.7195 18.8042 25.9229 18.5125 25.0125C18.7875 25.0625 19.075 25.1 19.375 25.1C19.7875 25.1 20.2 25.0375 20.575 24.9375C19.5383 24.7247 18.6066 24.1609 17.9371 23.3411C17.2677 22.5214 16.9014 21.4959 16.9 20.4375V20.3875C17.525 20.725 18.225 20.9375 18.975 20.9625C18.3473 20.5414 17.8329 19.9721 17.4776 19.305C17.1222 18.6378 16.9367 17.8934 16.9375 17.1375C16.9375 16.3 17.1625 15.5125 17.5625 14.8375C19.825 17.6125 23.2 19.4375 27.0125 19.625C26.9375 19.2875 26.8875 18.9375 26.8875 18.575C26.8908 17.3605 27.3756 16.1968 28.2356 15.3392C29.0955 14.4816 30.2605 14 31.475 14C32.8 14 33.9875 14.55 34.825 15.45C35.8625 15.2375 36.85 14.8625 37.7375 14.3375C37.3875 15.4 36.6625 16.3 35.7125 16.8625C36.6232 16.763 37.513 16.5226 38.35 16.15V16.15Z" fill="#006D77"/>
</g>
<defs>
<filter id="filter0_d_346_60" x="0" y="0" width="53.13" height="53.1299" filterUnits="userSpaceOnUse" color-interpolation-filters="sRGB">
<feFlood flood-opacity="0" result="BackgroundImageFix"/>
<feColorMatrix in="SourceAlpha" type="matrix" values="0 0 0 0 0 0 0 0 0 0 0 0 0 0 0 0 0 0 127 0" result="hardAlpha"/>
<feOffset dy="4"/>
<feGaussianBlur stdDeviation="2"/>
<feComposite in2="hardAlpha" operator="out"/>
<feColorMatrix type="matrix" values="0 0 0 0 0 0 0 0 0 0 0 0 0 0 0 0 0 0 0.25 0"/>
<feBlend mode="normal" in2="BackgroundImageFix" result="effect1_dropShadow_346_60"/>
<feBlend mode="normal" in="SourceGraphic" in2="effect1_dropShadow_346_60" result="shape"/>
</filter>
</defs>
</svg>
