<svg width="54" height="54" viewBox="0 0 54 54" fill="none" xmlns="http://www.w3.org/2000/svg">
<g filter="url(#filter0_d_346_61)">
<g filter="url(#filter1_d_346_61)">
<circle cx="26.565" cy="22.565" r="21.815" stroke="#006D77" stroke-width="1.5"/>
</g>
<path d="M36.36 16.2652C32.88 10.9002 25.775 9.30521 20.265 12.6402C14.9 15.9752 13.16 23.2252 16.64 28.5902L16.93 29.0252L15.77 33.3752L20.12 32.2152L20.555 32.5052C22.44 33.5202 24.47 34.1002 26.5 34.1002C28.675 34.1002 30.85 33.5202 32.735 32.3602C38.1 28.8802 39.695 21.7752 36.36 16.2652V16.2652ZM33.315 27.4302C32.735 28.3002 32.01 28.8802 30.995 29.0252C30.415 29.0252 29.69 29.3152 26.79 28.1552C24.325 26.9952 22.295 25.1102 20.845 22.9352C19.975 21.9202 19.54 20.6152 19.395 19.3102C19.395 18.1502 19.83 17.1352 20.555 16.4102C20.845 16.1202 21.135 15.9752 21.425 15.9752H22.15C22.44 15.9752 22.73 15.9752 22.875 16.5552C23.165 17.2802 23.89 19.0202 23.89 19.1652C24.035 19.3102 24.035 19.6002 23.89 19.7452C24.035 20.0352 23.89 20.3252 23.745 20.4702C23.6 20.6152 23.455 20.9052 23.31 21.0502C23.02 21.1952 22.875 21.4852 23.02 21.7752C23.6 22.6452 24.325 23.5152 25.05 24.2402C25.92 24.9652 26.79 25.5452 27.805 25.9802C28.095 26.1252 28.385 26.1252 28.53 25.8352C28.675 25.5452 29.4 24.8202 29.69 24.5302C29.98 24.2402 30.125 24.2402 30.415 24.3852L32.735 25.5452C33.025 25.6902 33.315 25.8352 33.46 25.9802C33.605 26.4152 33.605 26.9952 33.315 27.4302V27.4302Z" fill="#006D77"/>
</g>
<defs>
<filter id="filter0_d_346_61" x="0" y="0" width="53.13" height="53.1299" filterUnits="userSpaceOnUse" color-interpolation-filters="sRGB">
<feFlood flood-opacity="0" result="BackgroundImageFix"/>
<feColorMatrix in="SourceAlpha" type="matrix" values="0 0 0 0 0 0 0 0 0 0 0 0 0 0 0 0 0 0 127 0" result="hardAlpha"/>
<feOffset dy="4"/>
<feGaussianBlur stdDeviation="2"/>
<feComposite in2="hardAlpha" operator="out"/>
<feColorMatrix type="matrix" values="0 0 0 0 0 0 0 0 0 0 0 0 0 0 0 0 0 0 0.25 0"/>
<feBlend mode="normal" in2="BackgroundImageFix" result="effect1_dropShadow_346_61"/>
<feBlend mode="normal" in="SourceGraphic" in2="effect1_dropShadow_346_61" result="shape"/>
</filter>
<filter id="filter1_d_346_61" x="0" y="0" width="53.13" height="53.1299" filterUnits="userSpaceOnUse" color-interpolation-filters="sRGB">
<feFlood flood-opacity="0" result="BackgroundImageFix"/>
<feColorMatrix in="SourceAlpha" type="matrix" values="0 0 0 0 0 0 0 0 0 0 0 0 0 0 0 0 0 0 127 0" result="hardAlpha"/>
<feOffset dy="4"/>
<feGaussianBlur stdDeviation="2"/>
<feComposite in2="hardAlpha" operator="out"/>
<feColorMatrix type="matrix" values="0 0 0 0 0 0 0 0 0 0 0 0 0 0 0 0 0 0 0.25 0"/>
<feBlend mode="normal" in2="BackgroundImageFix" result="effect1_dropShadow_346_61"/>
<feBlend mode="normal" in="SourceGraphic" in2="effect1_dropShadow_346_61" result="shape"/>
</filter>
</defs>
</svg>
