<svg width="46" height="46" viewBox="0 0 46 46" fill="none" xmlns="http://www.w3.org/2000/svg">
<circle cx="22.565" cy="22.565" r="21.815" stroke="#006D77" stroke-width="1.5"/>
<path fill-rule="evenodd" clip-rule="evenodd" d="M29.904 11.673C23.5207 7.9876 15.3584 10.1747 11.673 16.558C10.4121 18.742 9.83794 21.1379 9.88572 23.4908L6.83185 26.4C6.05931 27.1359 6.40742 28.4351 7.44436 28.6861L11.5438 29.6786C12.6788 31.7402 14.374 33.528 16.558 34.789C22.9412 38.4743 31.1036 36.2872 34.789 29.904C38.4744 23.5207 36.2872 15.3584 29.904 11.673ZM19.1069 24.3369C20.0949 28.0241 22.1492 29.621 22.9206 30.1051C24.0939 30.8413 25.7897 30.5997 26.8578 29.8005C27.1195 29.6048 27.2723 29.2759 27.2237 28.9287C27.0589 27.7534 26.5376 26.6785 26.0345 25.6177C25.8174 25.1588 25.2756 24.9493 24.8048 25.1498L23.4998 25.8066C23.355 25.8794 23.1786 25.8313 23.097 25.6913C22.7823 25.1514 22.3617 24.2979 22.1534 23.5205C21.9453 22.7441 21.8928 21.8416 21.9051 21.2627C21.9084 21.1105 22.0259 20.988 22.177 20.9705L23.7021 20.7941C24.1794 20.7023 24.5056 20.2666 24.4692 19.7885C24.3886 18.7302 24.3413 17.4168 23.835 16.2739C23.6967 15.9618 23.4058 15.7677 23.0946 15.7306C21.7684 15.5724 20.1747 16.2082 19.5256 17.4346C19.0995 18.2396 18.1189 20.6497 19.1069 24.3369Z" fill="#006D77"/>
</svg>
