<svg width="46" height="46" viewBox="0 0 46 46" fill="none" xmlns="http://www.w3.org/2000/svg">
<circle cx="22.565" cy="22.565" r="21.815" stroke="#006D77" stroke-width="1.5"/>
<path fill-rule="evenodd" clip-rule="evenodd" d="M22.0261 9.30661C14.6631 9.64479 8.96833 15.8879 9.30652 23.2509C9.42222 25.7701 10.2306 28.0974 11.5395 30.0532L10.5363 34.1499C10.2825 35.1863 11.2762 36.0927 12.2848 35.745L16.2724 34.3704C18.3399 35.4947 20.7316 36.0862 23.2508 35.9705C30.6138 35.6323 36.3086 29.3892 35.9704 22.0262C35.6322 14.6632 29.3891 8.96843 22.0261 9.30661ZM19.7616 25.7937C22.5818 28.3662 25.173 28.6034 26.0836 28.5951C27.4687 28.5825 28.7666 27.4647 29.2352 26.2156C29.3501 25.9097 29.3014 25.5503 29.0733 25.2841C28.3007 24.3832 27.2822 23.759 26.2865 23.1369C25.8562 22.8675 25.2869 22.9832 24.9985 23.4059L24.2537 24.6627C24.171 24.8021 23.9965 24.8568 23.8523 24.7828C23.2961 24.4979 22.4816 24.0058 21.887 23.4635C21.2932 22.9217 20.7623 22.1901 20.4605 21.6958C20.3812 21.5659 20.4141 21.3994 20.532 21.3031L21.7212 20.3323C22.0737 19.9976 22.1135 19.4547 21.8251 19.0717C21.1865 18.2239 20.4384 17.1433 19.3958 16.4538C19.1111 16.2655 18.7615 16.2589 18.4794 16.3955C17.2772 16.9774 16.2778 18.3721 16.3924 19.755C16.4677 20.6627 16.9414 23.2211 19.7616 25.7937Z" fill="#006D77"/>
</svg>
